<svg width="48" height="56" viewBox="0 0 48 56" fill="none" xmlns="http://www.w3.org/2000/svg">
<circle cx="24" cy="28" r="23.5" stroke="white"/>
<path d="M31.032 18.816V27.912H24.816C24.84 27.336 24.864 26.76 24.864 26.16V16.104H23.064V26.16C23.064 26.76 23.04 27.336 23.016 27.912H16.992V18.816H15.216V31.512H16.992V29.664H22.776C22.224 32.52 20.568 34.848 16.104 36.48C16.536 36.792 17.184 37.488 17.472 37.872C22.416 35.976 24.12 33.12 24.648 29.664H31.032V31.488H32.808V18.816H31.032Z" fill="white"/>
<path d="M31.032 18.816V18.316H30.532V18.816H31.032ZM31.032 27.912V28.412H31.532V27.912H31.032ZM24.816 27.912L24.3164 27.8912L24.2947 28.412H24.816V27.912ZM24.864 16.104H25.364V15.604H24.864V16.104ZM23.064 16.104V15.604H22.564V16.104H23.064ZM23.016 27.912V28.412H23.4956L23.5156 27.9328L23.016 27.912ZM16.992 27.912H16.492V28.412H16.992V27.912ZM16.992 18.816H17.492V18.316H16.992V18.816ZM15.216 18.816V18.316H14.716V18.816H15.216ZM15.216 31.512H14.716V32.012H15.216V31.512ZM16.992 31.512V32.012H17.492V31.512H16.992ZM16.992 29.664V29.164H16.492V29.664H16.992ZM22.776 29.664L23.2669 29.7589L23.3819 29.164H22.776V29.664ZM16.104 36.48L15.9323 36.0104L15.0476 36.3338L15.8113 36.8853L16.104 36.48ZM17.472 37.872L17.072 38.172L17.2985 38.474L17.651 38.3388L17.472 37.872ZM24.648 29.664V29.164H24.2186L24.1537 29.5885L24.648 29.664ZM31.032 29.664H31.532V29.164H31.032V29.664ZM31.032 31.488H30.532V31.988H31.032V31.488ZM32.808 31.488V31.988H33.308V31.488H32.808ZM32.808 18.816H33.308V18.316H32.808V18.816ZM30.532 18.816V27.912H31.532V18.816H30.532ZM31.032 27.412H24.816V28.412H31.032V27.412ZM25.3156 27.9328C25.3395 27.3582 25.364 26.772 25.364 26.16H24.364C24.364 26.748 24.3405 27.3138 24.3164 27.8912L25.3156 27.9328ZM25.364 26.16V16.104H24.364V26.16H25.364ZM24.864 15.604H23.064V16.604H24.864V15.604ZM22.564 16.104V26.16H23.564V16.104H22.564ZM22.564 26.16C22.564 26.748 22.5405 27.3138 22.5164 27.8912L23.5156 27.9328C23.5395 27.3582 23.564 26.772 23.564 26.16H22.564ZM23.016 27.412H16.992V28.412H23.016V27.412ZM17.492 27.912V18.816H16.492V27.912H17.492ZM16.992 18.316H15.216V19.316H16.992V18.316ZM14.716 18.816V31.512H15.716V18.816H14.716ZM15.216 32.012H16.992V31.012H15.216V32.012ZM17.492 31.512V29.664H16.492V31.512H17.492ZM16.992 30.164H22.776V29.164H16.992V30.164ZM22.2851 29.5691C22.0229 30.9257 21.5048 32.1321 20.5373 33.1943C19.5656 34.2613 18.1126 35.2133 15.9323 36.0104L16.2757 36.9496C18.5594 36.1147 20.1664 35.0867 21.2767 33.8677C22.3912 32.6439 22.9771 31.2583 23.2669 29.7589L22.2851 29.5691ZM15.8113 36.8853C16.1892 37.1583 16.8026 37.8127 17.072 38.172L17.872 37.572C17.5654 37.1633 16.8828 36.4257 16.3967 36.0747L15.8113 36.8853ZM17.651 38.3388C20.1838 37.3675 21.9275 36.1343 23.1059 34.666C24.2854 33.1964 24.869 31.5284 25.1423 29.7395L24.1537 29.5885C23.899 31.2556 23.3666 32.7436 22.3261 34.04C21.2845 35.3377 19.7042 36.4805 17.293 37.4052L17.651 38.3388ZM24.648 30.164H31.032V29.164H24.648V30.164ZM30.532 29.664V31.488H31.532V29.664H30.532ZM31.032 31.988H32.808V30.988H31.032V31.988ZM33.308 31.488V18.816H32.308V31.488H33.308ZM32.808 18.316H31.032V19.316H32.808V18.316Z" fill="white"/>
</svg>
